<svg style="vertical-align: -0.577ex; color: #111827;" xmlns="http://www.w3.org/2000/svg" width="9.451ex" height="2.851ex" role="img" focusable="false" viewBox="0 -1005 4177.6 1260"><g stroke="currentColor" fill="currentColor" stroke-width="0" transform="scale(1,-1)"><g><g><g transform="translate(0,95)"><path d="M1013 807C1018 817 1020 823 1020 826C1020 842 1012 850 996 850C986 850 978 843 971 828L463-233L253 256L108 144L128 122L198 175L423-350C454-350 461-349 470-328Z"/></g><g transform="translate(1020,0)"><g><g><path d="M527 373C527 419 482 442 432 442C389 442 355 419 329 373C308 419 273 442 222 442C173 442 133 419 101 374C74 335 60 306 60 287C60 278 65 273 75 273C84 273 90 278 92 287C111 345 153 413 220 413C253 413 269 392 269 351C269 330 251 252 216 118C199 51 169 18 126 18C112 18 99 21 88 26C114 36 127 54 127 80C127 106 114 119 87 119C54 119 29 91 29 58C29 12 76-11 125-11C167-11 201 12 228 58C247 12 283-11 335-11C383-11 423 12 455 57C482 96 496 125 496 144C496 153 491 158 481 158C472 158 467 153 464 144C447 87 402 18 337 18C304 18 287 38 287 79C287 92 292 120 303 165L337 300C356 375 387 413 431 413C445 413 458 410 469 405C442 396 429 378 429 351C429 325 443 312 470 312C502 312 527 341 527 373Z"/></g><g transform="translate(605,289) scale(0.707)"><path d="M237 666C186 666 143 648 106 612C69 576 50 534 50 483C50 449 75 424 106 424C136 424 161 450 161 480C161 513 137 536 105 536C102 536 100 536 98 535C117 584 161 627 224 627C306 627 352 556 352 470C352 403 318 331 250 255L62 43C49 28 50 29 50 0L421 0L450 180L417 180C409 129 402 100 396 91C391 86 361 84 306 84L139 84L236 179C304 243 390 312 419 365C439 400 449 435 449 470C449 588 357 666 237 666Z"/></g></g><g transform="translate(1230.8,0)"><path d="M698 274L413 274L413 559C413 575 405 583 389 583C373 583 365 575 365 559L365 274L80 274C64 274 56 266 56 250C56 234 64 226 80 226L365 226L365-59C365-75 373-83 389-83C405-83 413-75 413-59L413 226L698 226C714 226 722 234 722 250C722 263 711 274 698 274Z"/></g><g transform="translate(2231,0)"><g><path d="M163 442C118 442 83 417 58 367C39 328 29 301 29 286C29 277 34 272 45 272C59 272 60 278 64 293C87 372 119 412 160 412C173 412 180 403 180 385C180 369 175 346 164 317C126 214 107 145 107 108C107 32 154-13 231-13C264-13 295-1 323 23C288-109 233-175 158-175C124-175 101-164 89-142C129-140 149-121 149-85C149-60 136-47 109-47C72-47 50-78 50-115C50-170 100-205 158-205C273-205 367-99 392-1L486 377C489 388 490 396 490 401C490 421 479 431 458 431C442 431 429 423 420 408C414 387 409 369 406 354L342 97C332 61 279 16 234 16C196 16 177 41 177 92C177 134 194 198 227 284C240 319 247 343 247 357C247 406 212 442 163 442Z"/></g><g transform="translate(523,289) scale(0.707)"><path d="M237 666C186 666 143 648 106 612C69 576 50 534 50 483C50 449 75 424 106 424C136 424 161 450 161 480C161 513 137 536 105 536C102 536 100 536 98 535C117 584 161 627 224 627C306 627 352 556 352 470C352 403 318 331 250 255L62 43C49 28 50 29 50 0L421 0L450 180L417 180C409 129 402 100 396 91C391 86 361 84 306 84L139 84L236 179C304 243 390 312 419 365C439 400 449 435 449 470C449 588 357 666 237 666Z"/></g></g></g><rect width="3157.6" height="60" x="1020" y="885"/></g></g></g></svg>